<svg xmlns="http://www.w3.org/2000/svg" version="1.1" xmlns:xlink="http://www.w3.org/1999/xlink" xmlns:svgjs="http://svgjs.com/svgjs" width="460" height="820" preserveAspectRatio="none" viewBox="0 0 460 820"><g mask="url(&quot;#SvgjsMask1178&quot;)" fill="none"><rect width="460" height="820" x="0" y="0" fill="url(#SvgjsRadialGradient1179)"></rect><path d="M120.258,269.076C169.629,266.696,207.446,227.446,228.266,182.617C245.973,144.49,237.204,101.239,214.693,65.736C193.932,32.994,158.889,15.544,120.258,12.278C73.441,8.32,20.436,8.588,-6.578,47.029C-36.763,89.984,-33.467,148.391,-7.427,193.978C18.823,239.932,67.396,271.624,120.258,269.076" fill="rgba(28, 83, 142, 0.52)" class="triangle-float2"></path><path d="M-58.47 -2.86 a55.61 55.61 0 1 0 111.22 0 a55.61 55.61 0 1 0 -111.22 0z" fill="rgba(28, 83, 142, 0.52)" class="triangle-float1"></path><path d="M33.718,85.184C54.092,86.542,77.133,82.358,86.986,64.473C96.639,46.952,86.325,26.403,75.296,9.714C65.653,-4.877,51.19,-15.34,33.718,-16.129C14.702,-16.987,-5.496,-10.901,-14.91,5.643C-24.248,22.054,-18.373,41.997,-8.524,58.107C0.826,73.401,15.832,83.992,33.718,85.184" fill="rgba(28, 83, 142, 0.52)" class="triangle-float1"></path><path d="M464.395,192.249C500.222,191.908,535.017,178.476,554.632,148.493C576.299,115.374,584.724,72.622,565.162,38.218C545.419,3.496,504.335,-10.649,464.395,-10.207C425.316,-9.774,387.059,6.618,367.42,40.406C347.69,74.35,350.003,117.149,371.136,150.238C390.805,181.036,427.854,192.596,464.395,192.249" fill="rgba(28, 83, 142, 0.52)" class="triangle-float2"></path><path d="M416.003,105.97C437.446,104.715,459.012,97.637,469.758,79.038C480.51,60.43,475.959,38.165,466.263,18.986C455.251,-2.796,440.346,-25.515,416.003,-27.285C389.269,-29.229,364.728,-12.551,351.256,10.622C337.712,33.919,334.981,63.747,350.12,86.041C363.935,106.385,391.454,107.407,416.003,105.97" fill="rgba(28, 83, 142, 0.52)" class="triangle-float1"></path><path d="M278.02 28.64 a118.62 118.62 0 1 0 237.24 0 a118.62 118.62 0 1 0 -237.24 0z" fill="rgba(28, 83, 142, 0.52)" class="triangle-float2"></path><path d="M-63.34 730 a65.34 65.34 0 1 0 130.68 0 a65.34 65.34 0 1 0 -130.68 0z" fill="rgba(28, 83, 142, 0.52)" class="triangle-float1"></path><path d="M-49.23 715.9 a37.13 37.13 0 1 0 74.26 0 a37.13 37.13 0 1 0 -74.26 0z" fill="rgba(28, 83, 142, 0.52)" class="triangle-float3"></path><path d="M97.465,926.645C132.132,924.564,158.908,900.993,177.724,871.803C198.806,839.099,218.73,800.3,201.352,765.486C182.636,727.991,139.313,708.791,97.465,711.018C58.992,713.065,30.352,742.231,11.111,775.609C-8.102,808.939,-20.517,849.16,-1.422,882.558C17.777,916.138,58.854,928.963,97.465,926.645" fill="rgba(28, 83, 142, 0.52)" class="triangle-float2"></path><path d="M407.214,819.373C425.689,819.104,441.106,808.047,451.609,792.845C464.244,774.556,477.249,752.411,467.163,732.602C456.508,711.675,430.617,703.711,407.214,705.652C386.806,707.345,371.883,723.186,362.329,741.299C353.512,758.016,351.106,777.784,360.526,794.169C369.973,810.602,388.261,819.649,407.214,819.373" fill="rgba(28, 83, 142, 0.52)" class="triangle-float3"></path><path d="M288.87 745.79 a96.92 96.92 0 1 0 193.84 0 a96.92 96.92 0 1 0 -193.84 0z" fill="rgba(28, 83, 142, 0.52)" class="triangle-float1"></path><path d="M479.993,948.083C518.67,948.738,552.774,926.614,573.92,894.222C597.584,857.974,611.985,813.628,593.243,774.608C572.152,730.697,528.706,698.939,479.993,698.671C430.877,698.401,385.102,728.733,364.567,773.352C346.523,812.558,367.629,855.121,391.418,891.132C412.155,922.523,442.376,947.446,479.993,948.083" fill="rgba(28, 83, 142, 0.52)" class="triangle-float3"></path></g><defs><mask id="SvgjsMask1178"><rect width="460" height="820" fill="#ffffff"></rect></mask><radialGradient cx="50%" cy="50%" r="470.11" gradientUnits="userSpaceOnUse" id="SvgjsRadialGradient1179"><stop stop-color="rgba(41, 64, 211, 1)" offset="0.06"></stop><stop stop-color="rgba(31, 31, 31, 1)" offset="0.81"></stop></radialGradient><style>
            @keyframes float1 {
                0%{transform: translate(0, 0)}
                50%{transform: translate(-10px, 0)}
                100%{transform: translate(0, 0)}
            }

            .triangle-float1 {
                animation: float1 5s infinite;
            }

            @keyframes float2 {
                0%{transform: translate(0, 0)}
                50%{transform: translate(-5px, -5px)}
                100%{transform: translate(0, 0)}
            }

            .triangle-float2 {
                animation: float2 4s infinite;
            }

            @keyframes float3 {
                0%{transform: translate(0, 0)}
                50%{transform: translate(0, -10px)}
                100%{transform: translate(0, 0)}
            }

            .triangle-float3 {
                animation: float3 6s infinite;
            }
        </style></defs></svg>