<svg xmlns="http://www.w3.org/2000/svg" version="1.1" xmlns:xlink="http://www.w3.org/1999/xlink" xmlns:svgjs="http://svgjs.com/svgjs" width="1440" height="560" preserveAspectRatio="none" viewBox="0 0 1440 560"><g mask="url(&quot;#SvgjsMask1084&quot;)" fill="none"><rect width="1440" height="560" x="0" y="0" fill="rgba(41, 64, 211, 1)"></rect><path d="M0,417.418C85.217,436.061,181.75,444.149,255.648,397.795C329.697,351.347,351.741,256.664,385.089,175.864C417.242,97.958,449.258,20.058,446.31,-64.17C443.141,-154.735,426.069,-249.298,367.781,-318.684C309.155,-388.472,218.053,-419.418,129.557,-441.232C43.957,-462.332,-44.624,-464.871,-129.571,-441.278C-215.371,-417.448,-299.061,-376.837,-354.165,-306.886C-408.129,-238.383,-432.668,-148.741,-428.641,-61.629C-424.963,17.943,-376.51,85.361,-332.95,152.053C-295.049,210.08,-246.821,256.527,-192.622,299.725C-132.565,347.591,-75.025,401.004,0,417.418" fill="#2134ab"></path><path d="M1440 1108.5C1568.061 1139.8890000000001 1712.94 1228.578 1824.3609999999999 1158.078 1935.608 1087.688 1891.117 910.716 1943.48 789.932 1994.379 672.525 2128.749 589.25 2126.429 461.306 2124.0789999999997 331.743 2019.188 229.527 1931.586 134.039 1846.0149999999999 40.764999999999986 1752.021-54.442999999999984 1628.383-81.57299999999998 1507.774-108.03800000000001 1386.383-58.216999999999985 1272.459-10.591999999999985 1168.499 32.86699999999996 1074.91 94.55900000000003 1001.852 180.34300000000002 929.244 265.597 874.377 365.543 857.8 476.29200000000003 841.166 587.426 852.13 705.543 908.709 802.6320000000001 962.986 895.771 1066.827 941.5129999999999 1160.251 995.298 1249.233 1046.525 1340.278 1084.057 1440 1108.5" fill="#4f62dd"></path></g><defs><mask id="SvgjsMask1084"><rect width="1440" height="560" fill="#ffffff"></rect></mask></defs></svg>